<?xml version="1.0" encoding="utf-8"?>
<!-- Generator: Adobe Illustrator 23.0.1, SVG Export Plug-In . SVG Version: 6.00 Build 0)  -->
<svg version="1.1" id="Layer_1" xmlns="http://www.w3.org/2000/svg" xmlns:xlink="http://www.w3.org/1999/xlink" x="0px" y="0px"
	 viewBox="0 0 1920 1080" style="enable-background:new 0 0 1920 1080;" xml:space="preserve">
<style type="text/css">
	.st0{fill:#F9FF00;stroke:#000000;stroke-width:10;stroke-miterlimit:10;}
	.st1{fill:#222222;}
	.st2{fill:#072501;}
	.st3{fill:#20201F;}
	.st4{fill:#26281E;}
	.st5{fill:#282926;}
	.st6{fill:#252924;}
	.st7{fill:#2E2F2E;}
	.st8{fill:#062702;}
	.st9{fill:#2C2A2E;}
	.st10{fill:#606060;}
	.st11{fill:#F49F04;stroke:#000000;stroke-width:12;stroke-miterlimit:10;}
	.st12{fill:#F49F04;stroke:#000000;stroke-width:10;stroke-miterlimit:10;}
</style>
<path class="st0" d="M716.8,389c0,0,1.4-175.7,181.4-159.8c0,0,77.8,13,112.3,95c0,0,96.5-95,138.2,28.8c0,0,2.9,23-10.1,36l49,11.5
	l21.1,12.5l-11.5,20.2l34.6-3.4l5.3,5.3l15.8,11.5l-17.8,71.5c0,0,45.4,76.8-37.8,198.8c0,0,27,41-14,56.2c0,0-26.6,9.7-46.1-12.6
	c0,0-36,49-90.7,39.6c0,0-33.8,82.8-138.2,86.4c0,0,77.8-104.4,36-133.2c0,0-254.2,138.2-258.5-70.6c0,0-61.2,19.4-60.5,5.8
	c0,0,21.6-38.9,22.3-57.6c0,0-93.6-55.4-33.1-136.1c0,0,20.2-29.5,45.4-20.2l-6.5-68.4L716.8,389z"/>
<path class="st1" d="M615.3,698.6c11.5,2.5,23,5,34.6,7.6l87.5-21.6c5.2-15.5,13.9-36.7,29.2-59.4c10.6-15.8,19.4-24.9,16.6-29.5
	c-2.7-4.4-15.5-4.8-59.8,12.2C687.3,638.1,651.3,668.3,615.3,698.6z"/>
<polygon class="st2" points="863.7,371 888.9,374.6 886.7,399.4 863.7,404.1 "/>
<path class="st3" d="M737,708.6c8.4,2.6,16.8,5.3,25.2,7.9l47.5-10.4l7-26.1l-66.3,18.3C745.9,701.8,741.5,705.2,737,708.6z"/>
<path class="st4" d="M976,478.2c-19.7,5.5-39.4,11-59,16.6c-0.3,7.1-0.6,14.3-1,21.4c-6.2,1.3-12.3,2.5-18.5,3.8
	c-10.7,3.8-24.1,7.7-26.3,3.9c-0.2-0.4-0.3-0.8-0.3-1c0-7.2,9.4-63.4,9.4-63.4l74.2-31.7C961.6,444.6,968.8,461.4,976,478.2z"/>
<polygon class="st3" points="983.9,371 1003.4,375.3 1003.4,391.8 983.9,404.1 "/>
<polygon class="st5" points="960,491.2 978.9,505.6 973.1,582.6 941.4,604.2 884.7,623.2 888.9,576.2 "/>
<path class="st6" d="M986.1,586.2c4.8,6.2,9.6,12.5,14.4,18.7c-2,11.2-3.9,22.5-5.7,34c-2.4,15.5-4.7,30.7-6.6,45.6
	c-56.2,18.7-112.4,37.5-168.6,56.2c-5.4-3.2-10.9-6.4-16.3-9.6C864.2,682.9,925.1,634.6,986.1,586.2z"/>
<path class="st7" d="M1198.5,398.3c5,4.6,10.1,9.1,15.1,13.7c-44.2,113.5-88.3,227-132.5,340.6c-31.7-3.8-63.4-7.7-95-11.5
	c-2.4-4.3-4.8-8.6-7.2-13C1052.1,618.2,1125.3,508.2,1198.5,398.3z"/>
<path class="st8" d="M1040.1,372.4c6,3.6,12,7.2,18,10.8c1.9,28.1,3.8,56.2,5.8,84.2l-14.2,35.3
	C1046.5,459.3,1043.3,415.9,1040.1,372.4z"/>
<path class="st9" d="M1238.8,425.7c7,6,13.9,12,20.9,18c-21.6,73.8-43.2,147.6-64.8,221.4c0,0-41.8,8.3-47.5,18.4l-25.9-10.8
	C1160.6,590.3,1199.7,508,1238.8,425.7z"/>
<path class="st9" d="M1187,706.1c2.5,1.2,16.1,8.2,21.2,24.1c1,3,4.5,15.4-1.4,28.1c-0.9,1.9-2.6,5-5.4,8.3
	c-11.7,13.4-30.2,13.4-32.4,13.3c-16.9-0.3-28-10.4-30.6-13C1154.6,746.7,1170.8,726.4,1187,706.1z"/>
<path class="st10" d="M748.1,380c4.7,6.5,9.4,13,14,19.4v125.3l-13.7,5.4C748.4,480,748.2,430,748.1,380z"/>
<path class="st11" d="M978.9,366.4l-115.2,41.3l-24.5,7.2c0,0-28.8,139.7-21.6,259.9l-7.9,47.5c0,0,142.9-56.2,169.2-46.4
	c0,0-12.2-35.6,0-82.1c0,0-77.4,19.4-94.7,33.5l4.3-38.9l64.8-22.7c0,0-6.5-48.6-1.1-63.7l-58,22.7v-44.3c0,0,14.8-21.6,74.2-25.9
	l-8.4-31.3l18.9-9.7V366.4z"/>
<path class="st12" d="M653.4,406.2l63.4-17.3l26.9-6.2c0,0,16.3,123.4,4.8,147.4l25.4-10.1V399.5l89.8-33.1v41.3l-24.5,7.2
	c0,0,6.5,131.8-21.6,259.9l-72,25.2c0,0,40.3-77.8,37.4-104.4l-36.7,9.4L724,665.4l-97.9,24.5C626.1,689.9,683.7,602.8,653.4,406.2z
	"/>
<path class="st11" d="M1036.5,381L960,423.2l63.5,169.6l-36.7,129.6c0,0,61.6-6.5,73.4,13l87.5-236.5v-54l27-4.3l17.3-37.8
	l-85.3-21.6l-56.2,129.6L1036.5,381z"/>
<polygon class="st11" points="1147.7,444.8 1232,431.8 1182.3,644.6 1128.3,665.1 "/>
<circle class="st11" cx="1160.1" cy="731.9" r="31.9"/>
<path d="M679.4,366.4c0,0,13-109.9,162.7-156C842.1,210.4,680.8,233,679.4,366.4z"/>
<path d="M650.6,344.3c0,0,30.2-89.3,111.6-133.9C762.2,210.4,662.1,240.6,650.6,344.3z"/>
<path d="M626.1,335.7c0,0-5.8-40.3,53.3-90.7C679.4,245,611.7,279.5,626.1,335.7z"/>
</svg>
